<mxfile host="app.diagrams.net" modified="2021-04-30T09:54:48.389Z" agent="5.0 (Windows)" etag="D8-l3WnbUA9Ai5DVHkMX" version="14.6.9" type="github" pages="2">
  <diagram id="Yqaxn6xuAggNtyuNKv6O" name="Page-1">
    <mxGraphModel dx="1038" dy="564" grid="1" gridSize="10" guides="1" tooltips="1" connect="1" arrows="1" fold="1" page="1" pageScale="1" pageWidth="827" pageHeight="1169" math="0" shadow="0">
      <root>
        <mxCell id="0" />
        <mxCell id="1" parent="0" />
        <mxCell id="TkSSAOSpLomHTmSBgpkf-1" value="" style="rounded=0;html=1;jettySize=auto;orthogonalLoop=1;fontSize=11;endArrow=block;endFill=0;endSize=8;strokeWidth=1;shadow=0;labelBackgroundColor=none;edgeStyle=orthogonalEdgeStyle;" edge="1" parent="1" source="TkSSAOSpLomHTmSBgpkf-2" target="TkSSAOSpLomHTmSBgpkf-5">
          <mxGeometry relative="1" as="geometry" />
        </mxCell>
        <mxCell id="TkSSAOSpLomHTmSBgpkf-2" value="Lamp doesn&#39;t work" style="rounded=1;whiteSpace=wrap;html=1;fontSize=12;glass=0;strokeWidth=1;shadow=0;" vertex="1" parent="1">
          <mxGeometry x="160" y="80" width="120" height="40" as="geometry" />
        </mxCell>
        <mxCell id="TkSSAOSpLomHTmSBgpkf-3" value="Yes" style="rounded=0;html=1;jettySize=auto;orthogonalLoop=1;fontSize=11;endArrow=block;endFill=0;endSize=8;strokeWidth=1;shadow=0;labelBackgroundColor=none;edgeStyle=orthogonalEdgeStyle;" edge="1" parent="1" source="TkSSAOSpLomHTmSBgpkf-5" target="TkSSAOSpLomHTmSBgpkf-9">
          <mxGeometry y="20" relative="1" as="geometry">
            <mxPoint as="offset" />
          </mxGeometry>
        </mxCell>
        <mxCell id="TkSSAOSpLomHTmSBgpkf-4" value="No" style="edgeStyle=orthogonalEdgeStyle;rounded=0;html=1;jettySize=auto;orthogonalLoop=1;fontSize=11;endArrow=block;endFill=0;endSize=8;strokeWidth=1;shadow=0;labelBackgroundColor=none;" edge="1" parent="1" source="TkSSAOSpLomHTmSBgpkf-5" target="TkSSAOSpLomHTmSBgpkf-6">
          <mxGeometry y="10" relative="1" as="geometry">
            <mxPoint as="offset" />
          </mxGeometry>
        </mxCell>
        <mxCell id="TkSSAOSpLomHTmSBgpkf-5" value="Lamp&lt;br&gt;plugged in?" style="rhombus;whiteSpace=wrap;html=1;shadow=0;fontFamily=Helvetica;fontSize=12;align=center;strokeWidth=1;spacing=6;spacingTop=-4;" vertex="1" parent="1">
          <mxGeometry x="170" y="170" width="100" height="80" as="geometry" />
        </mxCell>
        <mxCell id="TkSSAOSpLomHTmSBgpkf-6" value="Plug in lamp" style="rounded=1;whiteSpace=wrap;html=1;fontSize=12;glass=0;strokeWidth=1;shadow=0;" vertex="1" parent="1">
          <mxGeometry x="320" y="190" width="120" height="40" as="geometry" />
        </mxCell>
        <mxCell id="TkSSAOSpLomHTmSBgpkf-7" value="No" style="rounded=0;html=1;jettySize=auto;orthogonalLoop=1;fontSize=11;endArrow=block;endFill=0;endSize=8;strokeWidth=1;shadow=0;labelBackgroundColor=none;edgeStyle=orthogonalEdgeStyle;" edge="1" parent="1" source="TkSSAOSpLomHTmSBgpkf-9" target="TkSSAOSpLomHTmSBgpkf-10">
          <mxGeometry x="0.3333" y="20" relative="1" as="geometry">
            <mxPoint as="offset" />
          </mxGeometry>
        </mxCell>
        <mxCell id="TkSSAOSpLomHTmSBgpkf-8" value="Yes" style="edgeStyle=orthogonalEdgeStyle;rounded=0;html=1;jettySize=auto;orthogonalLoop=1;fontSize=11;endArrow=block;endFill=0;endSize=8;strokeWidth=1;shadow=0;labelBackgroundColor=none;" edge="1" parent="1" source="TkSSAOSpLomHTmSBgpkf-9" target="TkSSAOSpLomHTmSBgpkf-11">
          <mxGeometry y="10" relative="1" as="geometry">
            <mxPoint as="offset" />
          </mxGeometry>
        </mxCell>
        <mxCell id="TkSSAOSpLomHTmSBgpkf-9" value="Bulb&lt;br&gt;burned out?" style="rhombus;whiteSpace=wrap;html=1;shadow=0;fontFamily=Helvetica;fontSize=12;align=center;strokeWidth=1;spacing=6;spacingTop=-4;" vertex="1" parent="1">
          <mxGeometry x="170" y="290" width="100" height="80" as="geometry" />
        </mxCell>
        <mxCell id="TkSSAOSpLomHTmSBgpkf-10" value="Repair Lamp" style="rounded=1;whiteSpace=wrap;html=1;fontSize=12;glass=0;strokeWidth=1;shadow=0;" vertex="1" parent="1">
          <mxGeometry x="160" y="430" width="120" height="40" as="geometry" />
        </mxCell>
        <mxCell id="TkSSAOSpLomHTmSBgpkf-11" value="Replace Bulb" style="rounded=1;whiteSpace=wrap;html=1;fontSize=12;glass=0;strokeWidth=1;shadow=0;" vertex="1" parent="1">
          <mxGeometry x="320" y="310" width="120" height="40" as="geometry" />
        </mxCell>
      </root>
    </mxGraphModel>
  </diagram>
  <diagram name="Page-2" id="OiLXCKS8AkRnfOZebpat">
    <mxGraphModel dx="1038" dy="564" grid="1" gridSize="10" guides="1" tooltips="1" connect="1" arrows="1" fold="1" page="1" pageScale="1" pageWidth="827" pageHeight="1169" math="0" shadow="0">
      <root>
        <mxCell id="NK_LnD1ayLO3b4Zm_uxt-0" />
        <mxCell id="NK_LnD1ayLO3b4Zm_uxt-1" parent="NK_LnD1ayLO3b4Zm_uxt-0" />
        <mxCell id="1ZGXb1lvuUT7SftnG_Mi-25" value="" style="edgeStyle=orthogonalEdgeStyle;rounded=0;orthogonalLoop=1;jettySize=auto;html=1;fontSize=16;" parent="NK_LnD1ayLO3b4Zm_uxt-1" source="NK_LnD1ayLO3b4Zm_uxt-3" target="1ZGXb1lvuUT7SftnG_Mi-2" edge="1">
          <mxGeometry relative="1" as="geometry" />
        </mxCell>
        <mxCell id="1ZGXb1lvuUT7SftnG_Mi-26" style="edgeStyle=orthogonalEdgeStyle;rounded=0;orthogonalLoop=1;jettySize=auto;html=1;exitX=0.5;exitY=1;exitDx=0;exitDy=0;entryX=0.5;entryY=0;entryDx=0;entryDy=0;fontSize=16;" parent="NK_LnD1ayLO3b4Zm_uxt-1" source="NK_LnD1ayLO3b4Zm_uxt-3" target="1ZGXb1lvuUT7SftnG_Mi-0" edge="1">
          <mxGeometry relative="1" as="geometry" />
        </mxCell>
        <mxCell id="1ZGXb1lvuUT7SftnG_Mi-27" style="edgeStyle=orthogonalEdgeStyle;rounded=0;orthogonalLoop=1;jettySize=auto;html=1;entryX=0.5;entryY=0;entryDx=0;entryDy=0;fontSize=16;" parent="NK_LnD1ayLO3b4Zm_uxt-1" target="1ZGXb1lvuUT7SftnG_Mi-1" edge="1">
          <mxGeometry relative="1" as="geometry">
            <mxPoint x="443" y="110" as="sourcePoint" />
            <Array as="points">
              <mxPoint x="443" y="140" />
              <mxPoint x="283" y="140" />
            </Array>
          </mxGeometry>
        </mxCell>
        <mxCell id="1ZGXb1lvuUT7SftnG_Mi-28" style="edgeStyle=orthogonalEdgeStyle;rounded=0;orthogonalLoop=1;jettySize=auto;html=1;exitX=0.5;exitY=1;exitDx=0;exitDy=0;entryX=0.5;entryY=0;entryDx=0;entryDy=0;fontSize=16;" parent="NK_LnD1ayLO3b4Zm_uxt-1" source="NK_LnD1ayLO3b4Zm_uxt-3" target="1ZGXb1lvuUT7SftnG_Mi-3" edge="1">
          <mxGeometry relative="1" as="geometry" />
        </mxCell>
        <mxCell id="1ZGXb1lvuUT7SftnG_Mi-29" style="edgeStyle=orthogonalEdgeStyle;rounded=0;orthogonalLoop=1;jettySize=auto;html=1;exitX=0.5;exitY=1;exitDx=0;exitDy=0;entryX=0.5;entryY=0;entryDx=0;entryDy=0;fontSize=16;" parent="NK_LnD1ayLO3b4Zm_uxt-1" source="NK_LnD1ayLO3b4Zm_uxt-3" target="1ZGXb1lvuUT7SftnG_Mi-4" edge="1">
          <mxGeometry relative="1" as="geometry" />
        </mxCell>
        <mxCell id="NK_LnD1ayLO3b4Zm_uxt-3" value="客服網站" style="rounded=1;whiteSpace=wrap;html=1;fontSize=16;" parent="NK_LnD1ayLO3b4Zm_uxt-1" vertex="1">
          <mxGeometry x="390" y="70" width="106" height="40" as="geometry" />
        </mxCell>
        <mxCell id="1ZGXb1lvuUT7SftnG_Mi-31" style="edgeStyle=orthogonalEdgeStyle;rounded=0;orthogonalLoop=1;jettySize=auto;html=1;exitX=0.5;exitY=1;exitDx=0;exitDy=0;entryX=0;entryY=0.5;entryDx=0;entryDy=0;fontSize=16;" parent="NK_LnD1ayLO3b4Zm_uxt-1" source="1ZGXb1lvuUT7SftnG_Mi-0" target="1ZGXb1lvuUT7SftnG_Mi-30" edge="1">
          <mxGeometry relative="1" as="geometry" />
        </mxCell>
        <mxCell id="1ZGXb1lvuUT7SftnG_Mi-37" style="edgeStyle=orthogonalEdgeStyle;rounded=0;orthogonalLoop=1;jettySize=auto;html=1;exitX=0.25;exitY=1;exitDx=0;exitDy=0;entryX=0;entryY=0.5;entryDx=0;entryDy=0;fontSize=16;" parent="NK_LnD1ayLO3b4Zm_uxt-1" source="1ZGXb1lvuUT7SftnG_Mi-0" target="1ZGXb1lvuUT7SftnG_Mi-33" edge="1">
          <mxGeometry relative="1" as="geometry" />
        </mxCell>
        <mxCell id="1ZGXb1lvuUT7SftnG_Mi-0" value="基本操作說明" style="rounded=1;whiteSpace=wrap;html=1;fontSize=16;arcSize=0;" parent="NK_LnD1ayLO3b4Zm_uxt-1" vertex="1">
          <mxGeometry x="60" y="170" width="106" height="40" as="geometry" />
        </mxCell>
        <mxCell id="1ZGXb1lvuUT7SftnG_Mi-32" style="edgeStyle=orthogonalEdgeStyle;rounded=0;orthogonalLoop=1;jettySize=auto;html=1;exitX=0.5;exitY=1;exitDx=0;exitDy=0;entryX=1;entryY=0.5;entryDx=0;entryDy=0;fontSize=16;" parent="NK_LnD1ayLO3b4Zm_uxt-1" source="1ZGXb1lvuUT7SftnG_Mi-1" target="1ZGXb1lvuUT7SftnG_Mi-30" edge="1">
          <mxGeometry relative="1" as="geometry" />
        </mxCell>
        <mxCell id="1ZGXb1lvuUT7SftnG_Mi-38" style="edgeStyle=orthogonalEdgeStyle;rounded=0;orthogonalLoop=1;jettySize=auto;html=1;exitX=0.75;exitY=1;exitDx=0;exitDy=0;entryX=1;entryY=0.5;entryDx=0;entryDy=0;fontSize=16;" parent="NK_LnD1ayLO3b4Zm_uxt-1" source="1ZGXb1lvuUT7SftnG_Mi-1" target="1ZGXb1lvuUT7SftnG_Mi-33" edge="1">
          <mxGeometry relative="1" as="geometry" />
        </mxCell>
        <mxCell id="1ZGXb1lvuUT7SftnG_Mi-1" value="常見操作問題" style="rounded=1;whiteSpace=wrap;html=1;fontSize=16;arcSize=0;" parent="NK_LnD1ayLO3b4Zm_uxt-1" vertex="1">
          <mxGeometry x="230" y="170" width="106" height="40" as="geometry" />
        </mxCell>
        <mxCell id="1ZGXb1lvuUT7SftnG_Mi-2" value="系統公告" style="rounded=1;whiteSpace=wrap;html=1;fontSize=16;arcSize=0;" parent="NK_LnD1ayLO3b4Zm_uxt-1" vertex="1">
          <mxGeometry x="390" y="170" width="106" height="40" as="geometry" />
        </mxCell>
        <mxCell id="1ZGXb1lvuUT7SftnG_Mi-3" value="數據實績" style="rounded=1;whiteSpace=wrap;html=1;fontSize=16;arcSize=0;" parent="NK_LnD1ayLO3b4Zm_uxt-1" vertex="1">
          <mxGeometry x="550" y="170" width="106" height="40" as="geometry" />
        </mxCell>
        <mxCell id="1ZGXb1lvuUT7SftnG_Mi-4" value="Utrac系統" style="rounded=1;whiteSpace=wrap;html=1;fontSize=16;arcSize=0;" parent="NK_LnD1ayLO3b4Zm_uxt-1" vertex="1">
          <mxGeometry x="700" y="170" width="106" height="40" as="geometry" />
        </mxCell>
        <mxCell id="1ZGXb1lvuUT7SftnG_Mi-34" style="edgeStyle=orthogonalEdgeStyle;rounded=0;orthogonalLoop=1;jettySize=auto;html=1;exitX=0.5;exitY=1;exitDx=0;exitDy=0;entryX=0.5;entryY=0;entryDx=0;entryDy=0;fontSize=16;" parent="NK_LnD1ayLO3b4Zm_uxt-1" source="1ZGXb1lvuUT7SftnG_Mi-30" target="1ZGXb1lvuUT7SftnG_Mi-33" edge="1">
          <mxGeometry relative="1" as="geometry" />
        </mxCell>
        <mxCell id="1ZGXb1lvuUT7SftnG_Mi-36" style="edgeStyle=orthogonalEdgeStyle;rounded=0;orthogonalLoop=1;jettySize=auto;html=1;exitX=0.75;exitY=1;exitDx=0;exitDy=0;entryX=0;entryY=0.5;entryDx=0;entryDy=0;fontSize=16;" parent="NK_LnD1ayLO3b4Zm_uxt-1" source="1ZGXb1lvuUT7SftnG_Mi-30" target="NK_LnD1ayLO3b4Zm_uxt-3" edge="1">
          <mxGeometry relative="1" as="geometry">
            <Array as="points">
              <mxPoint x="220" y="350" />
              <mxPoint x="350" y="350" />
              <mxPoint x="350" y="90" />
            </Array>
          </mxGeometry>
        </mxCell>
        <mxCell id="1ZGXb1lvuUT7SftnG_Mi-30" value="文件總覽" style="rounded=1;whiteSpace=wrap;html=1;fontSize=16;arcSize=0;" parent="NK_LnD1ayLO3b4Zm_uxt-1" vertex="1">
          <mxGeometry x="140" y="290" width="106" height="40" as="geometry" />
        </mxCell>
        <mxCell id="1ZGXb1lvuUT7SftnG_Mi-35" style="edgeStyle=orthogonalEdgeStyle;rounded=0;orthogonalLoop=1;jettySize=auto;html=1;exitX=0.5;exitY=1;exitDx=0;exitDy=0;entryX=1;entryY=0.5;entryDx=0;entryDy=0;fontSize=16;" parent="NK_LnD1ayLO3b4Zm_uxt-1" source="1ZGXb1lvuUT7SftnG_Mi-33" target="NK_LnD1ayLO3b4Zm_uxt-3" edge="1">
          <mxGeometry relative="1" as="geometry" />
        </mxCell>
        <mxCell id="1ZGXb1lvuUT7SftnG_Mi-33" value="PDF文件頁" style="rounded=1;whiteSpace=wrap;html=1;fontSize=16;arcSize=0;" parent="NK_LnD1ayLO3b4Zm_uxt-1" vertex="1">
          <mxGeometry x="140" y="400" width="106" height="40" as="geometry" />
        </mxCell>
      </root>
    </mxGraphModel>
  </diagram>
</mxfile>
